<?xml version="1.0" standalone="no"?>
<!DOCTYPE svg PUBLIC "-//W3C//DTD SVG 20010904//EN"
 "http://www.w3.org/TR/2001/REC-SVG-20010904/DTD/svg10.dtd">
<svg version="1.0" xmlns="http://www.w3.org/2000/svg"
 width="343.000000pt" height="62.000000pt" viewBox="0 0 343.000000 62.000000"
 preserveAspectRatio="xMidYMid meet">

<g transform="translate(0.000000,62.000000) scale(0.100000,-0.100000)"
fill="#000000" stroke="none">
<path d="M2850 610 c-8 -5 -10 -10 -5 -10 64 -5 167 -19 172 -24 13 -13 -9
-19 -87 -26 -44 -4 -83 -10 -86 -13 -17 -16 15 -27 80 -27 48 0 79 -5 92 -15
30 -23 2 -35 -83 -35 -91 0 -93 -4 -93 -144 0 -129 5 -136 94 -136 69 0 114
-21 86 -40 -8 -5 -40 -10 -70 -10 -69 0 -100 -8 -100 -26 0 -8 1 -14 3 -15 1
0 39 -4 85 -8 131 -13 128 -31 -5 -40 -51 -3 -87 -10 -86 -16 2 -6 45 -11 97
-13 118 -3 126 2 126 97 0 66 19 116 37 98 4 -5 10 -50 13 -100 4 -73 8 -92
20 -92 12 0 16 19 20 92 3 50 8 94 12 98 18 18 28 -13 28 -85 0 -107 5 -112
129 -108 77 2 96 6 96 18 0 12 -15 16 -65 18 -80 3 -98 8 -82 24 6 6 42 14 79
17 51 5 68 10 68 21 0 10 -12 16 -40 18 -72 4 -105 13 -105 26 0 17 31 26 87
26 56 0 63 15 63 135 0 125 -6 135 -75 135 -62 0 -85 7 -85 26 0 10 21 14 78
16 69 3 77 5 77 23 0 18 -8 20 -73 23 -54 2 -74 7 -79 18 -9 23 3 29 78 34 39
3 68 9 67 15 -4 15 -184 13 -200 -3 -7 -7 -15 -44 -19 -82 -10 -114 -27 -111
-40 7 -4 43 -8 79 -8 81 -1 1 -7 2 -15 2 -18 0 -26 -31 -26 -102 0 -57 -14
-83 -31 -57 -5 8 -9 43 -9 80 0 37 -5 70 -12 77 -15 15 -186 16 -208 2z m460
-209 c13 -25 13 -122 0 -155 -11 -29 -35 -34 -44 -10 -11 29 -6 160 6 172 17
17 26 15 38 -7z m90 -85 c0 -78 -9 -102 -34 -93 -13 5 -16 21 -16 76 0 38 5
82 11 98 10 27 11 27 25 9 9 -13 14 -45 14 -90z m-392 1 c2 -71 0 -88 -13 -93
-31 -12 -45 15 -45 90 0 74 11 99 40 94 12 -3 16 -22 18 -91z m-98 57 c16 -42
12 -140 -6 -155 -23 -19 -34 4 -34 76 0 98 19 135 40 79z m264 10 c9 -3 16
-12 16 -19 0 -28 -96 -36 -107 -9 -10 28 47 45 91 28z m21 -109 c0 -17 -8 -20
-48 -23 -55 -4 -84 12 -66 35 8 9 28 13 63 11 43 -3 51 -6 51 -23z"/>
<path d="M1117 603 c-2 -4 -3 -98 -2 -208 2 -110 -1 -222 -6 -250 -7 -38 -6
-52 5 -63 25 -25 33 -5 41 95 4 54 13 108 20 119 14 22 71 39 97 29 38 -15 46
-82 23 -180 -18 -75 -18 -85 0 -85 25 0 38 41 42 135 7 146 -33 192 -129 149
-21 -9 -42 -14 -46 -10 -4 4 -9 66 -12 138 -3 87 -9 133 -17 135 -6 2 -13 0
-16 -4z"/>
<path d="M10 315 c0 -211 2 -245 15 -245 10 0 15 10 15 34 0 44 9 66 25 66 8
0 50 -22 95 -49 45 -28 88 -47 96 -44 30 11 9 31 -100 95 -25 15 -46 34 -46
41 0 7 25 40 55 72 51 54 65 75 48 75 -3 0 -37 -30 -75 -66 -37 -36 -73 -64
-80 -62 -10 4 -14 47 -16 166 -2 135 -5 162 -17 162 -13 0 -15 -36 -15 -245z"/>
<path d="M343 379 c-29 -8 -46 -28 -25 -30 4 0 26 -1 49 -3 52 -3 85 -30 81
-65 -2 -20 -14 -31 -49 -48 -53 -24 -119 -83 -119 -105 0 -42 74 -65 143 -44
26 8 27 7 27 -34 0 -34 3 -41 18 -38 15 3 17 19 20 138 4 216 -26 263 -145
229z m106 -178 c18 -12 -3 -77 -29 -91 -45 -24 -106 5 -98 47 6 34 94 65 127
44z"/>
<path d="M838 378 c-42 -15 -34 -25 22 -30 28 -3 59 -13 70 -23 34 -31 21 -85
-21 -85 -27 0 -118 -77 -125 -106 -13 -50 38 -70 130 -51 l38 8 -6 -35 c-6
-29 -3 -38 10 -43 9 -3 20 0 25 8 12 19 11 246 -1 291 -19 66 -74 92 -142 66z
m106 -174 c24 -9 19 -39 -13 -73 -31 -33 -65 -40 -96 -18 -52 39 42 117 109
91z"/>
<path d="M645 365 c-78 -28 -96 -84 -37 -120 85 -52 97 -62 100 -82 5 -37 -31
-63 -88 -63 -52 0 -64 -12 -30 -30 26 -14 91 3 125 33 14 12 28 36 31 53 5 25
1 37 -23 63 -15 17 -46 36 -68 43 -30 10 -41 19 -43 37 -5 36 21 52 74 44 35
-5 44 -3 44 10 0 13 -21 28 -38 27 -4 -1 -25 -7 -47 -15z"/>
<path d="M1836 365 c-3 -9 -6 -79 -6 -156 0 -130 1 -139 19 -139 17 0 19 9 22
79 4 67 8 83 28 105 13 14 35 26 50 28 15 2 27 10 29 21 5 25 -38 22 -72 -4
-33 -26 -41 -19 -41 33 0 42 -18 62 -29 33z"/>
<path d="M1537 348 c-107 -29 -152 -164 -82 -245 21 -26 29 -28 97 -28 64 0
80 4 116 28 44 29 82 90 82 132 0 36 -24 79 -55 99 -33 21 -108 28 -158 14z
m108 -23 c44 -21 59 -53 52 -111 -7 -66 -48 -105 -116 -112 -47 -4 -53 -2 -86
31 -26 26 -35 43 -35 70 0 44 36 97 80 119 43 22 63 22 105 3z"/>
<path d="M2127 345 c-92 -32 -144 -140 -103 -213 57 -104 259 -70 305 51 46
120 -67 211 -202 162z m127 -30 c14 -10 31 -34 37 -55 10 -33 9 -44 -9 -82
-26 -52 -66 -78 -122 -78 -34 0 -48 6 -76 34 -41 41 -45 86 -11 137 44 66 120
84 181 44z"/>
<path d="M2392 348 c-8 -10 -6 -33 8 -88 10 -41 24 -101 30 -132 18 -93 44
-77 95 59 15 40 31 75 35 78 5 3 28 -34 50 -82 23 -48 45 -95 49 -103 16 -29
35 -15 49 35 7 28 26 92 43 144 31 95 31 113 2 95 -11 -7 -21 -37 -29 -80 -15
-86 -30 -127 -46 -122 -7 3 -28 40 -48 84 -44 101 -55 118 -67 111 -6 -4 -25
-45 -43 -92 -18 -50 -37 -84 -43 -82 -7 2 -22 41 -33 86 -23 90 -35 109 -52
89z"/>
</g>
</svg>
