<?xml version="1.0"?>
<svg xmlns="http://www.w3.org/2000/svg" xmlns:xlink="http://www.w3.org/1999/xlink" xmlns:svgjs="http://svgjs.com/svgjs" version="1.1" width="512" height="512" x="0" y="0" viewBox="0 0 64 64" style="enable-background:new 0 0 512 512" xml:space="preserve" class=""><g><g xmlns="http://www.w3.org/2000/svg" id="health-eco-ecology-world-care"><path d="m61 28v15l-4 12h-16v-7l4.58-15.56a1.992 1.992 0 0 1 1.92-1.44h.5a2.006 2.006 0 0 1 2 2v12l5-9v-8l-4.25-14.44a2 2 0 0 1 1.92-2.56h.91a2 2 0 0 1 1.89 1.33z" fill="#ffdaaa" data-original="#ffdaaa" style="" class=""/><path d="m42 25a4.353 4.353 0 0 1 -.72 2c-2.29 3.92-9.28 10-9.28 10s-6.99-6.08-9.28-10a4.353 4.353 0 0 1 -.72-2 6 6 0 0 1 6-6 6.463 6.463 0 0 1 4 2 6.463 6.463 0 0 1 4-2 6 6 0 0 1 6 6z" fill="#fa5264" data-original="#ff3051" style="" class=""/><path d="m42 25a4.353 4.353 0 0 1 -.72 2c-2.29 3.92-9.28 10-9.28 10s-1.65-1.43-3.6-3.35c1.51-1.36 6.92-6.29 8.88-9.65a4.353 4.353 0 0 0 .72-2 5.978 5.978 0 0 0 -.72-2.86 6 6 0 0 1 4.72 5.86z" fill="#c1103a" data-original="#cd2a00" style="" class=""/><path d="m40 3v2a8 8 0 0 1 -8 8v-2a8 8 0 0 1 8-8z" fill="#ffde55" data-original="#ffde55" style="" class=""/><path d="m32 11v2a8 8 0 0 1 -8-8v-2a8 8 0 0 1 8 8z" fill="#ffde55" data-original="#ffde55" style="" class=""/><path d="m23 48v7h-16l-4-12v-15l5.53-15.67a2 2 0 0 1 1.89-1.33h.91a2 2 0 0 1 1.92 2.56l-4.25 14.44v8l5 9v-12a2.006 2.006 0 0 1 2-2h.5a1.992 1.992 0 0 1 1.92 1.44z" fill="#ffdaaa" data-original="#ffdaaa" style="" class=""/><path d="m40 3v2a8 8 0 0 1 -8 8v-2a2.09 2.09 0 0 1 .01-.25 8 8 0 0 0 5.98-7.5 8.321 8.321 0 0 1 2.01-.25z" fill="#ebbf00" data-original="#ebbf00" style="" class=""/><path d="m32 11v2a8 8 0 0 1 -7.48-5.17 8 8 0 0 0 5.48 2.17v-2a7.815 7.815 0 0 0 -.52-2.83 7.984 7.984 0 0 1 2.52 5.83z" fill="#ebbf00" data-original="#ebbf00" style="" class=""/><path d="m61 28v15l-4 12h-3l4-12v-15l-5.53-15.67a1.952 1.952 0 0 0 -.84-1.03 1.92 1.92 0 0 1 1.04-.3h.91a2 2 0 0 1 1.89 1.33z" fill="#ffc477" data-original="#ffc477" style="" class=""/><path d="m38 55h22v6h-22z" fill="#6abcad" data-original="#009698" style="" class=""/><path d="m57 55h3v6h-3z" fill="#388c7e" data-original="#007579" style="" class=""/><path d="m4 55h22v6h-22z" fill="#6abcad" data-original="#009698" style="" class=""/><path d="m23 48v7h-3v-7l-.3-1.03-1.7-5.76-2.58-8.77a2 2 0 0 0 -.67-1 1.962 1.962 0 0 1 1.25-.44h.5a1.992 1.992 0 0 1 1.92 1.44l2.58 8.77 1.7 5.76z" fill="#ffc477" data-original="#ffc477" style="" class=""/><path d="m23 55h3v6h-3z" fill="#388c7e" data-original="#007579" style="" class=""/><path d="m42.81 26a3.571 3.571 0 0 0 .19-1 7.008 7.008 0 0 0 -7-7 5.669 5.669 0 0 0 -3 .98v-5.04a9.016 9.016 0 0 0 8-8.94v-2a1 1 0 0 0 -1-1 9 9 0 0 0 -8 4.9 9 9 0 0 0 -8-4.9 1 1 0 0 0 -1 1v2a9.016 9.016 0 0 0 8 8.94v5.04a5.669 5.669 0 0 0 -3-.98 7.008 7.008 0 0 0 -7 7 3.571 3.571 0 0 0 .19 1h-6.19v2h7.19c2.42 3.79 7.82 8.6 9.15 9.75a1 1 0 0 0 1.32 0c1.33-1.15 6.73-5.96 9.15-9.75h7.19v-2zm-9.81-15a7.013 7.013 0 0 1 6-6.93v.93a7.013 7.013 0 0 1 -6 6.93zm-8-6v-.93a7.013 7.013 0 0 1 6 6.93v.93a7.013 7.013 0 0 1 -6-6.93zm7 30.67a64.4 64.4 0 0 1 -7.4-7.67h2.4a1.014 1.014 0 0 0 .8-.4l1.74-2.32 1.49 5.96a1 1 0 0 0 .7.72.842.842 0 0 0 .27.04 1.007 1.007 0 0 0 .71-.29l3.7-3.71h2.99a64.4 64.4 0 0 1 -7.4 7.67zm8.7-9.67h-4.7a1.033 1.033 0 0 0 -.71.29l-2.75 2.75-1.57-6.28a.989.989 0 0 0 -.77-.74 1.01 1.01 0 0 0 -1 .38l-2.7 3.6h-3.2a2.455 2.455 0 0 1 -.3-1 5 5 0 0 1 5-5 5.722 5.722 0 0 1 3.33 1.74.986.986 0 0 0 1.34 0 5.722 5.722 0 0 1 3.33-1.74 5 5 0 0 1 5 5 2.455 2.455 0 0 1 -.3 1z" fill="#000000" data-original="#000000" style="" class=""/><path d="m61.94 27.67-5.53-15.67a3 3 0 0 0 -2.83-2h-.91a2.984 2.984 0 0 0 -2.4 1.2 3.025 3.025 0 0 0 -.48 2.65l4.21 14.29v7.6l-3 5.4v-8.14a3.009 3.009 0 0 0 -3-3h-.5a3.024 3.024 0 0 0 -2.88 2.15l-4.58 15.57a.863.863 0 0 0 -.04.28v6h-2a1 1 0 0 0 -1 1v6a1 1 0 0 0 1 1h22a1 1 0 0 0 1-1v-6a1 1 0 0 0 -1-1h-1.61l3.56-10.68a1.185 1.185 0 0 0 .05-.32v-15a.919.919 0 0 0 -.06-.33zm-2.94 28.33v4h-20v-4zm1-13.16-3.72 11.16h-14.28v-5.86l4.54-15.42a1 1 0 0 1 .96-.72h.5a1 1 0 0 1 1 1v12a1 1 0 0 0 1.87.49l5-9a.947.947 0 0 0 .13-.49v-8a.863.863 0 0 0 -.04-.28l-4.25-14.44a1 1 0 0 1 .96-1.28h.91a1 1 0 0 1 .95.67l5.47 15.5z" fill="#000000" data-original="#000000" style="" class=""/><path d="m26 54h-2v-6a1 1 0 0 0 -.041-.282l-4.577-15.565a3.019 3.019 0 0 0 -2.882-2.153h-.5a3 3 0 0 0 -3 3v8.141l-3-5.4v-7.6l4.205-14.3a3 3 0 0 0 -2.878-3.841h-.912a3.005 3.005 0 0 0 -2.829 2l-5.529 15.667a1 1 0 0 0 -.057.333v15a1 1 0 0 0 .051.316l3.561 10.684h-1.612a1 1 0 0 0 -1 1v6a1 1 0 0 0 1 1h22a1 1 0 0 0 1-1v-6a1 1 0 0 0 -1-1zm-22-11.162v-14.667l5.472-15.5a1 1 0 0 1 .943-.671h.912a1 1 0 0 1 .959 1.282l-4.245 14.436a1 1 0 0 0 -.041.282v8a.991.991 0 0 0 .126.485l5 9a1 1 0 0 0 1.874-.485v-12a1 1 0 0 1 1-1h.5a1.006 1.006 0 0 1 .96.718l4.54 15.426v5.856h-14.279zm21 17.162h-20v-4h20z" fill="#000000" data-original="#000000" style="" class=""/></g></g></svg>
