<?xml version="1.0"?>
<svg xmlns="http://www.w3.org/2000/svg" xmlns:xlink="http://www.w3.org/1999/xlink" xmlns:svgjs="http://svgjs.com/svgjs" version="1.1" width="512" height="512" x="0" y="0" viewBox="0 0 512 512" style="enable-background:new 0 0 512 512" xml:space="preserve" class=""><g>
<polygon xmlns="http://www.w3.org/2000/svg" style="" points="512,151 512,512 0,512 0,151 31,121 480.801,121 " fill="#e5f4f2" data-original="#deecf1" class=""/>
<polygon xmlns="http://www.w3.org/2000/svg" style="" points="512,151 512,512 256,512 256,121 480.801,121 " fill="#e1f4f1" data-original="#c6e2e7" class=""/>
<rect xmlns="http://www.w3.org/2000/svg" y="30" style="" width="512" height="121" fill="#f09c28" data-original="#ff641a" class=""/>
<polygon xmlns="http://www.w3.org/2000/svg" style="" points="311.499,386.499 256,442.299 241,457.299 200.501,416.499 221.499,395.499 241,414.699   256,399.699 290.501,365.499 " fill="#6abcad" data-original="#00abe9" class=""/>
<g xmlns="http://www.w3.org/2000/svg">
	<path style="" d="M151,301H61v-90h90V301z" fill="#a8d3d8" data-original="#a8d3d8" class=""/>
	<path style="" d="M211,211v90h90v-90H211z" fill="#a8d3d8" data-original="#a8d3d8" class=""/>
	<path style="" d="M151,451H61v-90h90V451z" fill="#a8d3d8" data-original="#a8d3d8" class=""/>
</g>
<g xmlns="http://www.w3.org/2000/svg">
	<path style="" d="M452,301h-90v-90h90V301z" fill="#8ebac5" data-original="#8ebac5" class=""/>
	<path style="" d="M452,451h-90v-90h90V451z" fill="#8ebac5" data-original="#8ebac5" class=""/>
	<rect x="256" y="211" style="" width="45" height="90" fill="#8ebac5" data-original="#8ebac5" class=""/>
</g>
<polygon xmlns="http://www.w3.org/2000/svg" style="" points="290.501,365.499 311.499,386.499 256,442.299 256,399.699 " fill="#388c7e" data-original="#0095ff" class=""/>
<rect xmlns="http://www.w3.org/2000/svg" x="256" y="30" style="" width="256" height="121" fill="#b86e00" data-original="#f03800" class=""/>
<rect xmlns="http://www.w3.org/2000/svg" x="226" style="" width="60" height="90" fill="#00465f" data-original="#00465f" class=""/>
<rect xmlns="http://www.w3.org/2000/svg" x="256" style="" width="30" height="90" fill="#002c3c" data-original="#002c3c" class=""/>
<rect xmlns="http://www.w3.org/2000/svg" x="76" style="" width="60" height="90" fill="#00465f" data-original="#00465f" class=""/>
<rect xmlns="http://www.w3.org/2000/svg" x="106" style="" width="30" height="90" fill="#002c3c" data-original="#002c3c" class=""/>
<rect xmlns="http://www.w3.org/2000/svg" x="377" style="" width="60" height="90" fill="#00465f" data-original="#00465f" class=""/>
<rect xmlns="http://www.w3.org/2000/svg" x="407" style="" width="30" height="90" fill="#002c3c" data-original="#002c3c" class=""/>
<g xmlns="http://www.w3.org/2000/svg">
</g>
<g xmlns="http://www.w3.org/2000/svg">
</g>
<g xmlns="http://www.w3.org/2000/svg">
</g>
<g xmlns="http://www.w3.org/2000/svg">
</g>
<g xmlns="http://www.w3.org/2000/svg">
</g>
<g xmlns="http://www.w3.org/2000/svg">
</g>
<g xmlns="http://www.w3.org/2000/svg">
</g>
<g xmlns="http://www.w3.org/2000/svg">
</g>
<g xmlns="http://www.w3.org/2000/svg">
</g>
<g xmlns="http://www.w3.org/2000/svg">
</g>
<g xmlns="http://www.w3.org/2000/svg">
</g>
<g xmlns="http://www.w3.org/2000/svg">
</g>
<g xmlns="http://www.w3.org/2000/svg">
</g>
<g xmlns="http://www.w3.org/2000/svg">
</g>
<g xmlns="http://www.w3.org/2000/svg">
</g>
</g></svg>
